<mxfile host="app.diagrams.net" modified="2024-05-16T16:08:29.589Z" agent="Mozilla/5.0 (X11; Linux x86_64; rv:125.0) Gecko/20100101 Firefox/125.0" etag="dSTkyZP0CFsC20g6vVA8" version="24.4.2" type="gitlab">
  <diagram name="Page-1" id="AIUWVVYqq_lwZCqEAJ2z">
    <mxGraphModel dx="2801" dy="1739" grid="0" gridSize="10" guides="1" tooltips="1" connect="1" arrows="1" fold="1" page="1" pageScale="1" pageWidth="827" pageHeight="1169" math="0" shadow="0">
      <root>
        <mxCell id="0" />
        <mxCell id="1" parent="0" />
        <mxCell id="Xu7qltUGkgjGGgz_-p6g-13" style="edgeStyle=orthogonalEdgeStyle;rounded=0;orthogonalLoop=1;jettySize=auto;html=1;exitX=0.5;exitY=1;exitDx=0;exitDy=0;entryX=0.5;entryY=0;entryDx=0;entryDy=0;" edge="1" parent="1" source="Xu7qltUGkgjGGgz_-p6g-1" target="Xu7qltUGkgjGGgz_-p6g-8">
          <mxGeometry relative="1" as="geometry" />
        </mxCell>
        <mxCell id="Xu7qltUGkgjGGgz_-p6g-14" style="edgeStyle=orthogonalEdgeStyle;rounded=0;orthogonalLoop=1;jettySize=auto;html=1;exitX=0.5;exitY=1;exitDx=0;exitDy=0;" edge="1" parent="1" source="Xu7qltUGkgjGGgz_-p6g-1" target="Xu7qltUGkgjGGgz_-p6g-9">
          <mxGeometry relative="1" as="geometry" />
        </mxCell>
        <mxCell id="Xu7qltUGkgjGGgz_-p6g-15" style="edgeStyle=orthogonalEdgeStyle;rounded=0;orthogonalLoop=1;jettySize=auto;html=1;exitX=0.5;exitY=1;exitDx=0;exitDy=0;entryX=0.5;entryY=0;entryDx=0;entryDy=0;" edge="1" parent="1" source="Xu7qltUGkgjGGgz_-p6g-1" target="Xu7qltUGkgjGGgz_-p6g-10">
          <mxGeometry relative="1" as="geometry" />
        </mxCell>
        <mxCell id="Xu7qltUGkgjGGgz_-p6g-16" style="edgeStyle=orthogonalEdgeStyle;rounded=0;orthogonalLoop=1;jettySize=auto;html=1;exitX=0.5;exitY=1;exitDx=0;exitDy=0;entryX=0.5;entryY=0;entryDx=0;entryDy=0;" edge="1" parent="1" source="Xu7qltUGkgjGGgz_-p6g-1" target="Xu7qltUGkgjGGgz_-p6g-12">
          <mxGeometry relative="1" as="geometry" />
        </mxCell>
        <mxCell id="Xu7qltUGkgjGGgz_-p6g-17" style="edgeStyle=orthogonalEdgeStyle;rounded=0;orthogonalLoop=1;jettySize=auto;html=1;exitX=0.5;exitY=1;exitDx=0;exitDy=0;entryX=0.5;entryY=0;entryDx=0;entryDy=0;" edge="1" parent="1" source="Xu7qltUGkgjGGgz_-p6g-1" target="Xu7qltUGkgjGGgz_-p6g-11">
          <mxGeometry relative="1" as="geometry" />
        </mxCell>
        <mxCell id="Xu7qltUGkgjGGgz_-p6g-1" value="Rotor magnetic field&lt;br style=&quot;font-size: 14px;&quot;&gt;measurement bench" style="rounded=1;whiteSpace=wrap;html=1;fillColor=#EDF5FF;strokeColor=#0066CC;strokeWidth=2;glass=0;shadow=1;perimeterSpacing=0;fontSize=14;" vertex="1" parent="1">
          <mxGeometry x="-500" y="-1060" width="190" height="70" as="geometry" />
        </mxCell>
        <mxCell id="Xu7qltUGkgjGGgz_-p6g-5" value="&lt;div style=&quot;display: flex; justify-content: center; text-align: center; align-items: baseline; line-height: 1.25; margin-top: -2px; font-size: 28px;&quot;&gt;&lt;font style=&quot;font-size: 28px;&quot;&gt;&lt;font style=&quot;font-size: 28px;&quot;&gt;&lt;span style=&quot;font-size: 18px;&quot;&gt;&lt;span style=&quot;color: rgb(51, 51, 51); font-weight: bold;&quot;&gt;Arbre Produit &lt;br&gt;&lt;/span&gt;&lt;/span&gt;&lt;/font&gt;&lt;/font&gt;&lt;/div&gt;&lt;div style=&quot;display: flex; justify-content: center; text-align: center; align-items: baseline; line-height: 1.25; margin-top: -2px; font-size: 20px;&quot;&gt;&lt;font style=&quot;font-size: 20px;&quot;&gt;&lt;font size=&quot;1&quot;&gt;&lt;span&gt;&lt;span style=&quot;color: rgb(51, 51, 51);&quot;&gt;&lt;span style=&quot;color: rgb(51, 51, 51); font-size: 18px;&quot;&gt;(PBS: Product Breakdown Structure)&lt;/span&gt;&lt;/span&gt;&lt;/span&gt;&lt;/font&gt;&lt;/font&gt;&lt;/div&gt;" style="html=1;overflow=block;blockSpacing=1;whiteSpace=wrap;fontSize=13;spacing=3.8;strokeOpacity=0;fillOpacity=0;rounded=1;absoluteArcSize=1;arcSize=9;fillColor=#ffffff;strokeWidth=2.3;lucidId=eYRzC2p08GHb;" vertex="1" parent="1">
          <mxGeometry x="-628" y="-1140" width="430" height="70" as="geometry" />
        </mxCell>
        <mxCell id="Xu7qltUGkgjGGgz_-p6g-8" value="&lt;p style=&quot;line-height: 100%; margin-top: 0px; margin-bottom: 0px; font-size: 14px;&quot;&gt;&lt;font style=&quot;font-size: 14px;&quot;&gt;1000 &lt;font style=&quot;font-size: 14px;&quot;&gt;&lt;br&gt;Mechanical structure&lt;br&gt;&lt;/font&gt;&lt;/font&gt;&lt;/p&gt;" style="html=1;overflow=block;blockSpacing=1;whiteSpace=wrap;fontSize=20;fontColor=#333333;align=center;spacing=9;strokeColor=#1a5fb4;strokeOpacity=100;fillOpacity=100;rounded=1;absoluteArcSize=1;arcSize=9;fillColor=#EDF5FF;strokeWidth=2;lucidId=eYRzY_ig3sID;" vertex="1" parent="1">
          <mxGeometry x="-890" y="-930" width="152" height="60" as="geometry" />
        </mxCell>
        <mxCell id="Xu7qltUGkgjGGgz_-p6g-9" value="&lt;p style=&quot;line-height: 100%; margin-top: 0px; margin-bottom: 0px; font-size: 14px;&quot;&gt;&lt;font style=&quot;font-size: 14px;&quot;&gt;2000 &lt;font style=&quot;font-size: 14px;&quot;&gt;&lt;br&gt;Motorisation&lt;br&gt;&lt;/font&gt;&lt;/font&gt;&lt;/p&gt;" style="html=1;overflow=block;blockSpacing=1;whiteSpace=wrap;fontSize=20;fontColor=#333333;align=center;spacing=9;strokeColor=#1a5fb4;strokeOpacity=100;fillOpacity=100;rounded=1;absoluteArcSize=1;arcSize=9;fillColor=#EDF5FF;strokeWidth=2;lucidId=eYRzY_ig3sID;" vertex="1" parent="1">
          <mxGeometry x="-658" y="-930" width="110" height="60" as="geometry" />
        </mxCell>
        <mxCell id="Xu7qltUGkgjGGgz_-p6g-10" value="&lt;p style=&quot;line-height: 100%; margin-top: 0px; margin-bottom: 0px; font-size: 14px;&quot;&gt;&lt;font style=&quot;font-size: 14px;&quot;&gt;3000 &lt;font style=&quot;font-size: 14px;&quot;&gt;&lt;br&gt;Sensors&lt;br&gt;&lt;/font&gt;&lt;/font&gt;&lt;/p&gt;" style="html=1;overflow=block;blockSpacing=1;whiteSpace=wrap;fontSize=20;fontColor=#333333;align=center;spacing=9;strokeColor=#1a5fb4;strokeOpacity=100;fillOpacity=100;rounded=1;absoluteArcSize=1;arcSize=9;fillColor=#EDF5FF;strokeWidth=2;lucidId=eYRzY_ig3sID;" vertex="1" parent="1">
          <mxGeometry x="-460" y="-930" width="110" height="60" as="geometry" />
        </mxCell>
        <mxCell id="Xu7qltUGkgjGGgz_-p6g-11" value="&lt;p style=&quot;line-height: 100%; margin-top: 0px; margin-bottom: 0px; font-size: 14px;&quot;&gt;&lt;font style=&quot;font-size: 14px;&quot;&gt;5000 &lt;font style=&quot;font-size: 14px;&quot;&gt;&lt;br&gt;Computing System&lt;br&gt;&lt;/font&gt;&lt;/font&gt;&lt;/p&gt;" style="html=1;overflow=block;blockSpacing=1;whiteSpace=wrap;fontSize=20;fontColor=#333333;align=center;spacing=9;strokeColor=#1a5fb4;strokeOpacity=100;fillOpacity=100;rounded=1;absoluteArcSize=1;arcSize=9;fillColor=#EDF5FF;strokeWidth=2;lucidId=eYRzY_ig3sID;" vertex="1" parent="1">
          <mxGeometry x="-78" y="-930" width="120" height="60" as="geometry" />
        </mxCell>
        <mxCell id="Xu7qltUGkgjGGgz_-p6g-12" value="&lt;p style=&quot;line-height: 100%; margin-top: 0px; margin-bottom: 0px; font-size: 14px;&quot;&gt;&lt;font style=&quot;font-size: 14px;&quot;&gt;4000 &lt;font style=&quot;font-size: 14px;&quot;&gt;&lt;br&gt;Power Supply&lt;br&gt;&lt;/font&gt;&lt;/font&gt;&lt;/p&gt;" style="html=1;overflow=block;blockSpacing=1;whiteSpace=wrap;fontSize=20;fontColor=#333333;align=center;spacing=9;strokeColor=#1a5fb4;strokeOpacity=100;fillOpacity=100;rounded=1;absoluteArcSize=1;arcSize=9;fillColor=#EDF5FF;strokeWidth=2;lucidId=eYRzY_ig3sID;" vertex="1" parent="1">
          <mxGeometry x="-258" y="-930" width="110" height="60" as="geometry" />
        </mxCell>
      </root>
    </mxGraphModel>
  </diagram>
</mxfile>
